<svg xmlns="http://www.w3.org/2000/svg" xmlns:xlink="http://www.w3.org/1999/xlink" width="14" height="14" viewBox="0 0 14 14"><defs><path id="lecia" d="M959.271 167.182c-.977 0-1.771.855-1.771 1.909s.793 1.909 1.771 1.909c.979 0 1.772-.855 1.772-1.91 0-1.053-.793-1.908-1.772-1.908zm4.079-2.486c-1.393-1.511-3.248-2.436-5.213-2.605h-.047a.544.544 0 0 0-.396.169.626.626 0 0 0-.194.467v1.342c0 .329.23.597.535.627 2.814.288 5.047 2.695 5.315 5.727.028.328.277.577.581.577h1.246c.166 0 .323-.07.434-.209a.674.674 0 0 0 .156-.477c-.156-2.118-1.015-4.117-2.417-5.618zm3.322-3.58c-2.289-2.475-5.324-3.937-8.554-4.116h-.028a.552.552 0 0 0-.406.179.632.632 0 0 0-.184.457v1.422c0 .328.24.607.554.627 5.36.338 9.633 4.941 9.937 10.718.018.338.277.597.59.597h1.32c.166 0 .314-.07.424-.199a.638.638 0 0 0 .174-.467c-.174-3.48-1.53-6.752-3.827-9.218z"/></defs><g><g transform="translate(-957 -157)"><use fill="#fff" xlink:href="#lecia"/></g></g></svg>