<svg xmlns="http://www.w3.org/2000/svg" xmlns:xlink="http://www.w3.org/1999/xlink" width="16" height="16" viewBox="0 0 16 16"><defs><path id="4r63a" d="M922.585 168.775c0-1.23-1.361-1.916-2.18-2.54-.12-.018-.234-.018-.356-.018-1.538 0-4.28.458-4.28 2.285 0 1.687 2.427 2.337 4.052 2.337 1.063 0 2.764-.527 2.764-2.064zm-1.247-7.958c0-1.315-.71-3.715-2.153-3.715-1.472 0-2.192 1.09-2.192 2.23 0 1.353 1.124 3.206 2.907 3.206.977 0 1.438-.771 1.438-1.72zm-1.06-4.317h3.561l-1.509.66h-.618c1.012.586 1.474 1.735 1.474 2.849 0 2.085-2.253 2.24-2.253 3.549 0 1.322 2.956 1.845 2.956 4.461 0 1.01-.509 1.828-1.294 2.478-1.195.773-2.46 1.003-3.93 1.003-2.43 0-4.665-.574-4.665-2.593 0-.413.148-.818.342-1.187.795-1.602 3.593-2.109 5.636-2.163-.235-.441-.456-.954-.456-1.528 0-.338.085-.563.157-.886a4.127 4.127 0 0 1-.696.055c-2.18 0-3.795-1.306-3.795-2.871 0-1.814 1.378-3.326 3.424-3.66.686-.109 1.216-.167 1.666-.167zm9.722 2.335v1.273h-2.366v1.994h-1.27v-1.994h-2.41v-1.273h2.41V156.5h1.27v2.335z"/></defs><g><g transform="translate(-914 -156)"><use fill="#fff" xlink:href="#4r63a"/></g></g></svg>