<svg xmlns="http://www.w3.org/2000/svg" xmlns:xlink="http://www.w3.org/1999/xlink" width="16" height="14" viewBox="0 0 16 14"><defs><path id="7ysna" d="M845.5 159.044c-.55.254-1.15.436-1.769.507a3.242 3.242 0 0 0 1.352-1.807 5.83 5.83 0 0 1-1.951.792 2.98 2.98 0 0 0-2.247-1.036c-1.704 0-3.074 1.473-3.074 3.28 0 .254.028.508.076.752-2.551-.142-4.826-1.442-6.34-3.433a3.424 3.424 0 0 0-.419 1.656c0 1.137.543 2.143 1.37 2.732a2.953 2.953 0 0 1-1.389-.417v.04c0 1.595 1.057 2.916 2.466 3.22a3.063 3.063 0 0 1-.81.112c-.2 0-.39-.02-.58-.05.39 1.3 1.523 2.244 2.875 2.274a5.917 5.917 0 0 1-3.818 1.402c-.257 0-.495-.01-.742-.04a8.298 8.298 0 0 0 4.721 1.472c5.655 0 8.748-4.997 8.748-9.334 0-.142 0-.284-.01-.426a6.823 6.823 0 0 0 1.541-1.696z"/></defs><g><g transform="translate(-830 -157)"><use fill="#fff" xlink:href="#7ysna"/></g></g></svg>