<svg xmlns="http://www.w3.org/2000/svg" xmlns:xlink="http://www.w3.org/1999/xlink" width="16" height="14" viewBox="0 0 16 14"><defs><path id="t11qa" d="M788.683 161.427V171h3.042v-9.573zm1.54-4.427c-1.032 0-1.723.715-1.723 1.652 0 .917.663 1.652 1.687 1.652h.018c1.06 0 1.744-.735 1.734-1.652v-.18c-.01-.757-.673-1.472-1.716-1.472zm9.729 4.385c-1.785-.177-2.582.747-3.024 1.403v-1.203h-3.35s.04.809 0 9.345h3.35v-5.342c0-.29.03-.57.112-.782.244-.57.794-1.16 1.72-1.16 1.212 0 1.698.88 1.698 2.164v5.12h3.042v-5.487c0-2.823-1.498-4.058-3.548-4.058z"/></defs><g><g transform="translate(-788 -157)"><use fill="#fff" xlink:href="#t11qa"/></g></g></svg>